# xmcd
#
# Track frame offsets: 
#        150
#        19898
#        39025
#        56691
#        77838
#        91575
#        105679
#        124546
#        141608
#        157570
#        171414
#        185140
#
# Disc length: 2686 seconds
#
# Revision: 1
# Processed by: cddbd v1.5.2PL0 Copyright (c) Steve Scherf et al.
# Submitted via: ExactAudioCopy v1.0b1
#
DISCID=940a7c0c
DTITLE=Gunter Gabriel - Meine Helden und andere Pechvögel
DYEAR=1977
DGENRE=Country
TTITLE0=Ein Stückchen pro Tag (One Piece At A Time)
TTITLE1=Fahr, Taxi, fahr
TTITLE2=Asphalt-Fieber
TTITLE3=Franky's Curry Station
TTITLE4=Papa trinkt Bier
TTITLE5=Meine Helden
TTITLE6=Der Sieger (The Winner)
TTITLE7=Baby, gib Gas
TTITLE8=Wer nichts mehr zu verlieren hat
TTITLE9=Ein ehrenwertes Haus
TTITLE10=Hinrich's Nest (Das Lied vom Froschkönig)
TTITLE11=Willy Klein, der Fernsehmann
EXTD=YEAR: 1977
EXTT0=
EXTT1=
EXTT2=
EXTT3=
EXTT4=
EXTT5=
EXTT6=
EXTT7=
EXTT8=
EXTT9=
EXTT10=
EXTT11=
PLAYORDER=
